# xmcd CD database file
#
# Track frame offsets:
#	150
#	9868
#	29765
#	49298
#	68915
#	90315
#	107253
#	125915
#	141656
#	162750
#	181779
#	195672
#	210262
#	218908
#
# Disc length: 2977 seconds
#
# Revision: 0
# Processed by: cddbd v1.5.2PL0 Copyright (c) Steve Scherf et al.
# Submitted via: CDex 1.70beta2
#
DISCID=c10b9f0e
DTITLE=Martin Tingvall - En Ny Dag
DYEAR=2012
DGENRE=Jazz
TTITLE0=A Falling Star
TTITLE1=A Beginning
TTITLE2=Dabbie And The Dogs
TTITLE3=After We had Parted
TTITLE4=A New Day
TTITLE5=There's Thunder In The Air
TTITLE6=Hoisting The Flag On Midsommar
TTITLE7=No Electricity In Harare
TTITLE8=For The Loved Ones At Home
TTITLE9=The Last Dance Of The Evening
TTITLE10=The Mosquito That Wouldn't Die
TTITLE11=When The Children Are Sleeping
TTITLE12=At The End Of The Day
TTITLE13=The Big Dipper
EXTD=YEAR: 2012
EXTT0=
EXTT1=
EXTT2=
EXTT3=
EXTT4=
EXTT5=
EXTT6=
EXTT7=
EXTT8=
EXTT9=
EXTT10=
EXTT11=
EXTT12=
EXTT13=
PLAYORDER=
